<?xml version="1.0" encoding="UTF-8"?>
<svg xmlns="http://www.w3.org/2000/svg" viewBox="0 0 1920 1080">
  <defs>
    <style>
      .cls-1 {
        fill: none;
        stroke: blue;
        stroke-miterlimit: 10;
        stroke-width: 4px;
      }

      .cls-2 {
        font-family: MVBoli, 'MV Boli';
        font-size: 200px;
      }
    </style>
  </defs>
  <g id="Camada_1" data-name="Camada 1">
    <text class="cls-2" transform="translate(412.49 506.55)"><tspan x="0" y="0">OPHIUSSA</tspan></text>
  </g>
  <g id="Camada_2" data-name="Camada 2">
    <path class="cls-1" d="m1345.37,422.25c7.03-11.85,16.95-21.91,29.48-27.85,13.58-6.44,28.95-8.3,43.8-6.56,8.58,1,17,3.19,25.03,6.35"/>
    <path class="cls-1" d="m1205,439c-3.27,4.55-8.22,13.05-7,23,2.32,18.98,25.26,28.41,34,32,24.58,10.11,63.53,11.68,86-13,8.75-9.61,12.37-20.32,14-27"/>
    <path class="cls-1" d="m1126.86,354.58c-.86-6.58-4.86-12.58-11.86-15.58-13-4-27,2-34,14-4,8-5,17-1,25,11,24,39,31,63,29,30-4,54-21,80-34,11-5,23-2,32,5,.72.77,1.43,1.6,2.12,2.5,3.88,5.01,5.84,10.26,6.88,14.5,1.85,4.68,1.42,8.18,1,10-1.98,8.65-12.02,15.4-25,16"/>
    <path class="cls-1" d="m1118.97,407.36c3.95-9.39,7.31-19.19,8.86-29.29"/>
    <path class="cls-1" d="m1122,454.7c-15.55-2.57-12.95-19.46-9.41-30.69"/>
    <path class="cls-1" d="m939.96,469.62c8.39,2.84,20.82,5.7,35.04,3.38,27.62-4.49,33.69-23.88,58-24,19.1-.1,35.08,11.76,38,14,9.32,7.15,8.26,10.58,20,20,4.55,3.65,15.69,11.95,32,17,16.95,5.25,25.73,2.73,28,2,7.22-2.3,10.31-6.12,11-7,4.01-5.17,4.02-10.98,4-13-.14-11.65-9.6-18.95-11-20"/>
    <path class="cls-1" d="m891.49,430.35c4.88,4.99,8.21,11.19,12.45,16.69,2.18,2.83,4.6,5.63,7.47,7.78,1.53,1.14,3.24,1.76,4.81,2.83s2.75,2.65,4.33,3.69"/>
    <path class="cls-1" d="m843,404c11.02,1.92,21.72,5.96,31.12,12.05"/>
    <path class="cls-1" d="m681.52,435.99c44.48,18.01,100.48,9.01,134.3-25.22"/>
    <path class="cls-1" d="m452.18,473.74c18.82,6.26,38.82,3.26,57.82-2.74,23-9,45-21,63-39,2-2,5-3,7-4,4-3,7-7,11-10,20-15,44-5,63.03,5.89"/>
    <path class="cls-1" d="m398,429c8.49,14.25,20.33,26.06,34.21,35.08"/>
    <path class="cls-1" d="m1365,428c6.02-3.89,17.01-9.86,32-12,19.13-2.73,34.28,2.26,41.23,5.06"/>
    <path class="cls-1" d="m1193.75,424c-14.22,6.26-19.32,21.25-17.33,36.34,2.89,21.88,18.02,36.38,23.69,41.37,18.59,16.35,39.31,18.89,51.8,20.42,11.45,1.4,37.8,2.89,64.8-11.21,8.63-4.51,18.43-9.78,26.51-21.39,9.5-13.67,11.02-28.07,11.28-34.97"/>
    <path class="cls-1" d="m1148.73,351.23c-.73-4.23-1.73-7.23-2.73-11.23-1-2-2-4-3-7-9-19-32-26-52-20-1,0-2,2-3,2-24,7-37,33-34,56,2,14,8,26,18,36,15.8,15.8,41.74,17.57,49,18,45.22,2.71,82-20,82-20,10.79-6.66,25.44-17.98,34-13,2.08,1.21,4.51,3.8,5,7,1,6.49-6.5,11.91-8,13-7.48,5.41-16.17,4.44-19,4"/>
    <path class="cls-1" d="m1137.19,407.71c5.63-10.71,10.68-21.88,11.83-34.06"/>
    <path class="cls-1" d="m1131.24,452.05c-6.62-8.28-7.14-19.62-2.27-28.89"/>
    <path class="cls-1" d="m942.48,451.04c4.62,1.05,12.34,2.28,21.52.96,19.28-2.78,24.55-13.91,47-21,6.78-2.14,17.62-5.57,31-4,15.48,1.81,26.14,9.34,39.22,18.81,22.57,16.35,28.18,28.68,47.78,34.19,3.4.96,13.5,3.8,16,0,1.62-2.46-.6-6.71-2-9"/>
    <path class="cls-1" d="m898.27,408.78c9.24,10.12,16.65,21.88,26.73,31.25"/>
    <path class="cls-1" d="m849.25,383.62c10.94,1.83,21.62,5.4,31.19,11.04"/>
    <path class="cls-1" d="m700.73,421.13c30.27,8.87,63.27,3.87,89.27-15.13,10-9,19-18,31.05-22.67"/>
    <path class="cls-1" d="m455.76,453.5c30.24,1.5,58.24-5.5,84.24-22.5,8-5,14-11,22-17,11-8,20-17,32-22,30-11,58,8,83.72,20.96"/>
    <path class="cls-1" d="m396,425c11.03,10.66,24.59,18.91,39.05,24.02"/>
  </g>
</svg>